HIERARCHY
ROOT Hips
{
    OFFSET 0 0 0
    CHANNELS 6 Xposition Yposition Zposition Zrotation Xrotation Yrotation
    JOINT Spine
    {
        OFFSET -2.09235e-06 11.8934 0.353976
        CHANNELS 3 Zrotation Xrotation Yrotation
        JOINT Spine1
        {
            OFFSET -1.26041e-06 18.6411 -1.28445
            CHANNELS 3 Zrotation Xrotation Yrotation
            JOINT Spine2
            {
                OFFSET 0.00502016 12.8711 -1.94892
                CHANNELS 3 Zrotation Xrotation Yrotation
                JOINT Neck
                {
                    OFFSET 0.0058107 14.8928 -2.30562
                    CHANNELS 3 Zrotation Xrotation Yrotation
                    JOINT Head
                    {
                        OFFSET 0.00339375 9.1392 0.0642024
                        CHANNELS 3 Zrotation Xrotation Yrotation
                        End Site
                        {
                            OFFSET 0 0 0
                        }
                    }
                }
                JOINT LeftShoulder
                {
                    OFFSET 3.67433 11.8096 0.716738
                    CHANNELS 3 Zrotation Xrotation Yrotation
                    JOINT LeftArm
                    {
                        OFFSET 13.2658 -1.17667 -7.56709
                        CHANNELS 3 Zrotation Xrotation Yrotation
                        JOINT LeftForeArm
                        {
                            OFFSET 29.4417 -0.0109553 0.00339672
                            CHANNELS 3 Zrotation Xrotation Yrotation
                            JOINT LeftHand
                            {
                                OFFSET 26.1766 -0.0097394 0.00303686
                                CHANNELS 3 Zrotation Xrotation Yrotation
                                JOINT LeftHandThumb1
                                {
                                    OFFSET 4.74579 -1.93115 2.54528
                                    CHANNELS 3 Zrotation Xrotation Yrotation
                                    JOINT LeftHandThumb2
                                    {
                                        OFFSET 2.70336 -1.23636 2.29439
                                        CHANNELS 3 Zrotation Xrotation Yrotation
                                        JOINT LeftHandThumb3
                                        {
                                            OFFSET 3.16268 -1.90277 1.38406
                                            CHANNELS 3 Zrotation Xrotation Yrotation
                                            End Site
                                            {
                                                OFFSET 0 0 0
                                            }
                                        }
                                    }
                                }
                                JOINT LeftHandIndex1
                                {
                                    OFFSET 11.688 -0.350833 2.67938
                                    CHANNELS 3 Zrotation Xrotation Yrotation
                                    JOINT LeftHandIndex2
                                    {
                                        OFFSET 4.15632 -0.00733137 0.188317
                                        CHANNELS 3 Zrotation Xrotation Yrotation
                                        JOINT LeftHandIndex3
                                        {
                                            OFFSET 3.2907 -0.0368237 0.12604
                                            CHANNELS 3 Zrotation Xrotation Yrotation
                                            End Site
                                            {
                                                OFFSET 0 0 0
                                            }
                                        }
                                    }
                                }
                                JOINT LeftHandMiddle1
                                {
                                    OFFSET 11.9542 0.363231 0.158637
                                    CHANNELS 3 Zrotation Xrotation Yrotation
                                    JOINT LeftHandMiddle2
                                    {
                                        OFFSET 4.50233 -0.022161 0.0750706
                                        CHANNELS 3 Zrotation Xrotation Yrotation
                                        JOINT LeftHandMiddle3
                                        {
                                            OFFSET 3.54008 -0.0390291 0.0604741
                                            CHANNELS 3 Zrotation Xrotation Yrotation
                                            End Site
                                            {
                                                OFFSET 0 0 0
                                            }
                                        }
                                    }
                                }
                                JOINT LeftHandRing1
                                {
                                    OFFSET 11.41 0.0918627 -2.13364
                                    CHANNELS 3 Zrotation Xrotation Yrotation
                                    JOINT LeftHandRing2
                                    {
                                        OFFSET 4.29875 -0.0437379 -0.0229135
                                        CHANNELS 3 Zrotation Xrotation Yrotation
                                        JOINT LeftHandRing3
                                        {
                                            OFFSET 3.37301 -0.0678539 -0.00969693
                                            CHANNELS 3 Zrotation Xrotation Yrotation
                                            End Site
                                            {
                                                OFFSET 0 0 0
                                            }
                                        }
                                    }
                                }
                                JOINT LeftHandPinky1
                                {
                                    OFFSET 10.2731 -0.384104 -4.004
                                    CHANNELS 3 Zrotation Xrotation Yrotation
                                    JOINT LeftHandPinky2
                                    {
                                        OFFSET 3.45849 0.00594854 -0.216508
                                        CHANNELS 3 Zrotation Xrotation Yrotation
                                        JOINT LeftHandPinky3
                                        {
                                            OFFSET 2.89208 0.0147462 -0.172339
                                            CHANNELS 3 Zrotation Xrotation Yrotation
                                            End Site
                                            {
                                                OFFSET 0 0 0
                                            }
                                        }
                                    }
                                }
                            }
                        }
                    }
                }
                JOINT RightShoulder
                {
                    OFFSET -3.66572 11.8125 0.715889
                    CHANNELS 3 Zrotation Xrotation Yrotation
                    JOINT RightArm
                    {
                        OFFSET -13.2649 -1.1668 -7.57011
                        CHANNELS 3 Zrotation Xrotation Yrotation
                        JOINT RightForeArm
                        {
                            OFFSET -29.4418 0.0109553 -0.00339448
                            CHANNELS 3 Zrotation Xrotation Yrotation
                            JOINT RightHand
                            {
                                OFFSET -26.1767 0.00972748 -0.00301227
                                CHANNELS 3 Zrotation Xrotation Yrotation
                                JOINT RightHandThumb1
                                {
                                    OFFSET -4.74793 -1.92775 2.54418
                                    CHANNELS 3 Zrotation Xrotation Yrotation
                                    JOINT RightHandThumb2
                                    {
                                        OFFSET -2.70464 -1.23435 2.29378
                                        CHANNELS 3 Zrotation Xrotation Yrotation
                                        JOINT RightHandThumb3
                                        {
                                            OFFSET -3.16441 -1.9004 1.38333
                                            CHANNELS 3 Zrotation Xrotation Yrotation
                                            End Site
                                            {
                                                OFFSET 0 0 0
                                            }
                                        }
                                    }
                                }
                                JOINT RightHandIndex1
                                {
                                    OFFSET -11.7143 -0.404739 2.68616
                                    CHANNELS 3 Zrotation Xrotation Yrotation
                                    JOINT RightHandIndex2
                                    {
                                        OFFSET -4.15651 -0.00733137 0.187699
                                        CHANNELS 3 Zrotation Xrotation Yrotation
                                        JOINT RightHandIndex3
                                        {
                                            OFFSET -3.29072 -0.0367999 0.125611
                                            CHANNELS 3 Zrotation Xrotation Yrotation
                                            End Site
                                            {
                                                OFFSET 0 0 0
                                            }
                                        }
                                    }
                                }
                                JOINT RightHandMiddle1
                                {
                                    OFFSET -11.9538 0.372016 0.155906
                                    CHANNELS 3 Zrotation Xrotation Yrotation
                                    JOINT RightHandMiddle2
                                    {
                                        OFFSET -4.50254 -0.0189424 0.0740178
                                        CHANNELS 3 Zrotation Xrotation Yrotation
                                        JOINT RightHandMiddle3
                                        {
                                            OFFSET -3.54019 -0.0363708 0.0596538
                                            CHANNELS 3 Zrotation Xrotation Yrotation
                                            End Site
                                            {
                                                OFFSET 0 0 0
                                            }
                                        }
                                    }
                                }
                                JOINT RightHandRing1
                                {
                                    OFFSET -11.436 0.0383377 -2.1268
                                    CHANNELS 3 Zrotation Xrotation Yrotation
                                    JOINT RightHandRing2
                                    {
                                        OFFSET -4.29844 -0.0437617 -0.0235535
                                        CHANNELS 3 Zrotation Xrotation Yrotation
                                        JOINT RightHandRing3
                                        {
                                            OFFSET -3.37304 -0.0679612 -0.0101708
                                            CHANNELS 3 Zrotation Xrotation Yrotation
                                            End Site
                                            {
                                                OFFSET 0 0 0
                                            }
                                        }
                                    }
                                }
                                JOINT RightHandPinky1
                                {
                                    OFFSET -10.2986 -0.437462 -3.99699
                                    CHANNELS 3 Zrotation Xrotation Yrotation
                                    JOINT RightHandPinky2
                                    {
                                        OFFSET -3.45854 0.00578165 -0.217007
                                        CHANNELS 3 Zrotation Xrotation Yrotation
                                        JOINT RightHandPinky3
                                        {
                                            OFFSET -2.89182 0.0149727 -0.172819
                                            CHANNELS 3 Zrotation Xrotation Yrotation
                                            End Site
                                            {
                                                OFFSET 0 0 0
                                            }
                                        }
                                    }
                                }
                            }
                        }
                    }
                }
            }
        }
    }
    JOINT LeftUpLeg
    {
        OFFSET 8.73919 -0.000184774 -5.26197e-06
        CHANNELS 3 Zrotation Xrotation Yrotation
        JOINT LeftLeg
        {
            OFFSET 5.05774 -40.9824 -1.23411
            CHANNELS 3 Zrotation Xrotation Yrotation
            JOINT LeftFoot
            {
                OFFSET 2.77379 -38.429 -6.08625
                CHANNELS 3 Zrotation Xrotation Yrotation
                JOINT LeftToeBase
                {
                    OFFSET 0.807787 -13.0671 15.9427
                    CHANNELS 3 Zrotation Xrotation Yrotation
                    End Site
                    {
                        OFFSET 0 0 0
                    }
                }
            }
        }
    }
    JOINT RightUpLeg
    {
        OFFSET -8.73919 0 0
        CHANNELS 3 Zrotation Xrotation Yrotation
        JOINT RightLeg
        {
            OFFSET -5.05777 -40.9826 -1.23412
            CHANNELS 3 Zrotation Xrotation Yrotation
            JOINT RightFoot
            {
                OFFSET -2.7738 -38.4291 -6.08627
                CHANNELS 3 Zrotation Xrotation Yrotation
                JOINT RightToeBase
                {
                    OFFSET -0.807784 -13.0671 15.9426
                    CHANNELS 3 Zrotation Xrotation Yrotation
                    End Site
                    {
                        OFFSET 0 0 0
                    }
                }
            }
        }
    }
}
MOTION
Frames: 4
Frame Time: 0.016667
117.471 54.8413 -95.8541 5.12542 -12.8978 -59.3801 -17.5007 -0.0277234 0.0395647 3.09685 2.73728 8.8275 -1.33402e-08 -5.33608e-08 0 2.33859 -6.68657 -1.72732 12.0337 -1.93054 -1.02335 -1.33402e-08 -5.33608e-08 0 -23.407 -6.44051 -69.2403 -0.869291 -6.33827 -69.4746 39.251 0.142474 34.6853 4.25578 1.13332 9.70254 0.172461 -2.30953 -3.64655 1.73668 6.81143 12.6734 -2.50716 -0.187521 14.9388 -13.8227 0.543705 0.104678 -15.2636 0.601579 0.118694 -1.24653 -0.0669594 14.6734 -10.9115 0.195074 0.0884693 -16.4621 0.301871 -0.137056 0.172126 0.0984207 8.33309 -18.1691 -0.0214322 -0.220287 -10.6657 -0.0211786 -0.131221 -51.5691 2.78613 -12.8776 -30.3637 -1.67692 -0.641632 -9.69906 -0.580929 0 -1.33402e-08 -5.33608e-08 0 79.1739 -51.0547 86.8519 -5.22777 -49.27 147.497 9.64032 -58.5691 -7.8784 5.82917 8.84649 -12.0837 -5.22974 -0.485039 -2.80107 -1.19711 4.04149 -7.61336 47.8267 2.3001 0.0559529 59.7197 2.27597 -0.387653 20.1586 0.799528 0.142652 47.163 -0.775966 -3.69983 61.3726 1.23671 0.163129 39.5376 0.780601 0.253338 46.9294 -2.89323 -6.20586 52.0897 0.137484 0.657299 47.6938 0.103308 0.609091 50.104 -5.18199 -3.85667 52.1652 -2.4335 1.86418 52.1652 -2.4335 1.86418 -10.6308 5.09198 -17.5678 -174.883 32.7133 162.683 -8.53774e-07 1.70755e-06 0 -0 0 0 -26.6344 -16.5036 -5.58057 164.192 82.7299 -177.384 -10.1678 16.6757 8.83087 71.6755 -69.3881 92.7901 
114.889 50.2806 -92.0305 4.8325 -11.7906 -59.0201 -16.5078 -0.0201458 0 3.21001 2.61547 7.3654 1.06722e-07 2.66804e-08 0 2.1741 -6.72422 -1.60324 11.6375 -3.59882 -0.802102 1.06722e-07 2.66804e-08 0 -31.3475 -2.96682 -61.5354 -12.8687 1.76144 -63.0994 49.6412 3.39999 13.432 4.21167 0.763019 8.83939 0.0473023 -2.31922 -3.76048 1.75808 6.96626 12.9537 -2.6505 -0.19992 14.9466 -14.2958 0.562695 0.104678 -15.7497 0.621124 0.111906 -1.03612 -0.0438111 14.7655 -11.2785 0.201994 0.104678 -16.9233 0.310932 -0.142652 0.600286 0.127123 8.02401 -18.7404 -0.0209535 -0.223812 -10.882 -0.0213562 0.118694 -51.9605 3.39405 -14.0676 -31.3489 -1.72257 -0.685281 -9.83221 -0.588682 0 1.06722e-07 2.66804e-08 0 106.661 -46.6143 82.6552 7.99419 -50.242 179.971 12.5003 -79.0236 -2.92251 5.84118 8.85405 -12.0837 -5.16742 -0.52581 -2.70004 -1.17541 3.946 -7.43726 47.765 2.31722 0.0559529 59.0547 2.25514 -0.375344 19.9257 0.790101 0.142652 47.0997 -0.778541 -3.70849 60.7512 1.22435 0.176939 39.101 0.771275 0.259443 46.8277 -2.91997 -6.2861 51.2565 0.130727 0.647703 46.9309 0.0977535 0.601332 50.0175 -5.2436 -4.00856 51.3297 -2.41054 1.8187 51.3297 -2.41054 1.8187 -10.3937 4.40168 -16.7142 -174.736 36.552 164.149 8.53774e-06 -3.41509e-06 0.0559529 -0 -2.56132e-06 0 -22.6151 -13.7536 -2.9142 167.654 84.7847 174.208 -19.4069 26.0569 12.4396 82.433 -59.9791 113.678 
113.157 47.2594 -88.8126 4.47113 -10.547 -58.4941 -15.3362 -0.0121289 0 3.27724 2.44013 5.37882 5.33608e-08 2.66804e-08 0 2.06252 -6.6365 -1.52107 10.6948 -5.8403 -0.505128 5.33608e-08 2.66804e-08 0 -37.5467 -0.625443 -52.0794 -26.1811 7.69596 -50.6441 59.5774 -0.525249 -8.99368 4.05478 0.56221 8.16481 -0.00899412 -2.31963 -3.8058 1.76083 6.98663 12.9909 -2.96148 -0.225659 14.9127 -14.5738 0.573861 0.111906 -16.1279 0.636337 0.104678 -1.12862 -0.0545363 14.8264 -11.9025 0.213815 0.0969133 -17.4912 0.322129 -0.148037 0.580786 0.12319 7.86357 -19.5623 -0.0201413 -0.237388 -11.1509 -0.0215628 -0.137056 -52.3827 3.79613 -14.8153 -32.3305 -1.76727 -0.725234 -9.98515 -0.597579 0 5.33608e-08 2.66804e-08 0 57.3894 -17.0157 4.45091 -4.89314 -49.6113 179.971 -19.7196 -31.5009 24.3475 5.8532 8.86161 -12.0835 -5.10502 -0.56647 -2.5981 -1.15341 3.85058 -7.26142 47.7034 2.3343 0.111906 58.3896 2.23412 -0.356082 19.6929 0.780673 0.137056 47.0363 -0.781104 -3.71777 60.1299 1.21194 0.181308 38.6644 0.76195 0.253338 46.7261 -2.94657 -6.36643 50.4233 0.124099 0.636734 46.1679 0.0923127 0.592151 49.9309 -5.30498 -4.16073 50.4942 -2.38693 1.77294 50.4942 -2.38693 1.77294 -10.1013 3.71163 -16.1698 -174.705 42.6547 166.492 5.12264e-06 4.26887e-06 0 -0 0 0 -18.5756 -10.1325 -0.825189 158.912 88.8406 178.984 -29.1359 33.5096 16.9651 81.0902 -51.0054 122.08 
112.198 46.0378 -86.4506 4.05221 -9.2878 -57.8808 -14.0975 -0.00469853 0 3.30915 2.23972 3.03524 -5.33609e-08 -1.66753e-08 0 2.02449 -6.39687 -1.49616 8.97294 -8.22717 -0.216705 -5.33609e-08 -1.66753e-08 0 -41.3414 0.566656 -42.54 -36.2415 8.56209 -35.6098 64.0884 -9.80282 -28.6237 3.81931 0.484439 7.62559 -0.0160521 -2.31353 -3.80168 1.75049 6.91075 12.8532 -3.39201 -0.260523 14.8493 -14.7121 0.579416 0.104678 -16.4289 0.648447 -0.125115 -1.43713 -0.0897569 14.865 -12.7099 0.229198 0.118694 -18.1353 0.334878 -0.158259 0.240766 0.0973299 7.8098 -20.563 -0.018956 -0.250229 -11.4575 -0.0217793 -0.137056 -52.8317 4.04832 -15.2444 -33.3097 -1.81105 -0.767189 -10.1522 -0.607287 0.0395647 -5.33609e-08 -1.66753e-08 0 38.362 -7.55895 15.194 -16.5465 -43.7076 179.977 -35.2135 -3.69649 2.55527 5.86521 8.86917 -12.0833 -5.04255 -0.607019 -2.49576 -1.13113 3.75523 -7.08508 47.6417 2.35133 0.153233 57.7246 2.21291 -0.338041 19.46 0.771246 0.142652 46.9729 -0.783659 -3.72639 59.5086 1.19947 0.181308 38.2277 0.752625 0.256409 46.6243 -2.97302 -6.44662 49.59 0.117602 0.629316 45.405 0.0869868 0.58148 49.8441 -5.36614 -4.31317 49.6587 -2.36267 1.72868 49.6587 -2.36267 1.72868 -9.8068 3.07803 -15.8908 -175.177 51.0455 169.92 1.70755e-06 1.70755e-06 0.0559529 -1.70755e-06 2.56132e-06 0 -14.9533 -6.76756 0.896996 0.478096 86.4288 -24.8067 -37.1006 38.7182 21.3746 80.5318 -45.3443 127.696 
